<svg width="10" height="10" viewBox="0 0 10 10" fill="none" xmlns="http://www.w3.org/2000/svg">
<path d="M5.59821 8.61757C5.59821 8.54614 5.5625 8.46579 5.50893 8.41221L2 4.90329L5.50893 1.39436C5.5625 1.34079 5.59821 1.26043 5.59821 1.189C5.59821 1.11757 5.5625 1.03721 5.50893 0.983643L5.0625 0.537213C5.00893 0.483643 4.92857 0.447927 4.85714 0.447927C4.78571 0.447927 4.70536 0.483643 4.65179 0.537213L0.491071 4.69793C0.4375 4.7515 0.401786 4.83186 0.401786 4.90329C0.401786 4.97471 0.4375 5.05507 0.491071 5.10864L4.65179 9.26936C4.70536 9.32293 4.78571 9.35864 4.85714 9.35864C4.92857 9.35864 5.00893 9.32293 5.0625 9.26936L5.50893 8.82293C5.5625 8.76936 5.59821 8.689 5.59821 8.61757ZM9.02679 8.61757C9.02679 8.54614 8.99107 8.46579 8.9375 8.41221L5.42857 4.90329L8.9375 1.39436C8.99107 1.34079 9.02679 1.26043 9.02679 1.189C9.02679 1.11757 8.99107 1.03721 8.9375 0.983643L8.49107 0.537213C8.4375 0.483643 8.35714 0.447927 8.28572 0.447927C8.21429 0.447927 8.13393 0.483643 8.08036 0.537213L3.91964 4.69793C3.86607 4.7515 3.83036 4.83186 3.83036 4.90329C3.83036 4.97471 3.86607 5.05507 3.91964 5.10864L8.08036 9.26936C8.13393 9.32293 8.21429 9.35864 8.28572 9.35864C8.35714 9.35864 8.4375 9.32293 8.49107 9.26936L8.9375 8.82293C8.99107 8.76936 9.02679 8.689 9.02679 8.61757Z" fill="#0A58CA"/>
</svg>
