<svg width="9" height="10" viewBox="0 0 9 10" fill="none" xmlns="http://www.w3.org/2000/svg">
<path d="M5.3125 4.90329C5.3125 4.83186 5.27679 4.7515 5.22321 4.69793L1.0625 0.537213C1.00893 0.483643 0.928571 0.447927 0.857143 0.447927C0.785714 0.447927 0.705357 0.483643 0.651786 0.537213L0.205357 0.983643C0.151786 1.03721 0.116071 1.11757 0.116071 1.189C0.116071 1.26043 0.151786 1.34079 0.205357 1.39436L3.71429 4.90329L0.205357 8.41221C0.151786 8.46579 0.116071 8.54614 0.116071 8.61757C0.116071 8.689 0.151786 8.76936 0.205357 8.82293L0.651786 9.26936C0.705357 9.32293 0.785714 9.35864 0.857143 9.35864C0.928571 9.35864 1.00893 9.32293 1.0625 9.26936L5.22321 5.10864C5.27679 5.05507 5.3125 4.97471 5.3125 4.90329ZM8.74107 4.90329C8.74107 4.83186 8.70536 4.7515 8.65179 4.69793L4.49107 0.537213C4.4375 0.483643 4.35714 0.447927 4.28571 0.447927C4.21429 0.447927 4.13393 0.483643 4.08036 0.537213L3.63393 0.983643C3.58036 1.03721 3.54464 1.11757 3.54464 1.189C3.54464 1.26043 3.58036 1.34079 3.63393 1.39436L7.14286 4.90329L3.63393 8.41221C3.58036 8.46579 3.54464 8.54614 3.54464 8.61757C3.54464 8.689 3.58036 8.76936 3.63393 8.82293L4.08036 9.26936C4.13393 9.32293 4.21429 9.35864 4.28571 9.35864C4.35714 9.35864 4.4375 9.32293 4.49107 9.26936L8.65179 5.10864C8.70536 5.05507 8.74107 4.97471 8.74107 4.90329Z" fill="#0A58CA"/>
</svg>
