<svg width="34" height="34" viewBox="0 0 34 34" fill="none" xmlns="http://www.w3.org/2000/svg">
<rect x="1" y="1" width="32.1311" height="32.1311" rx="1.60656" stroke="#9EC5FE" stroke-width="1.60656"/>
<path d="M10.6394 20.2787H7.42626C6.53898 20.2787 5.8197 20.998 5.8197 21.8852V26.7049C5.8197 27.5922 6.53898 28.3115 7.42626 28.3115H10.6394C11.5267 28.3115 12.2459 27.5922 12.2459 26.7049V21.8852C12.2459 20.998 11.5267 20.2787 10.6394 20.2787Z" fill="#9EC5FE"/>
<path d="M18.6722 13.8525H15.459C14.5718 13.8525 13.8525 14.5717 13.8525 15.459V26.7049C13.8525 27.5922 14.5718 28.3115 15.459 28.3115H18.6722C19.5594 28.3115 20.2787 27.5922 20.2787 26.7049V15.459C20.2787 14.5717 19.5594 13.8525 18.6722 13.8525Z" fill="#9EC5FE"/>
<path d="M26.7049 5.81967H23.4918C22.6045 5.81967 21.8853 6.53895 21.8853 7.42623V26.7049C21.8853 27.5922 22.6045 28.3115 23.4918 28.3115H26.7049C27.5922 28.3115 28.3115 27.5922 28.3115 26.7049V7.42623C28.3115 6.53895 27.5922 5.81967 26.7049 5.81967Z" fill="#9EC5FE"/>
</svg>
