<svg width="18" height="19" viewBox="0 0 18 19" fill="none" xmlns="http://www.w3.org/2000/svg">
<path d="M17.4394 2.68245C17.5445 2.78789 17.6036 2.9307 17.6036 3.07958C17.6036 3.22846 17.5445 3.37127 17.4394 3.4767L16.2661 4.6512L14.0161 2.4012L15.1894 1.2267C15.2949 1.12125 15.438 1.06201 15.5871 1.06201C15.7363 1.06201 15.8793 1.12125 15.9848 1.2267L17.4394 2.68133V2.68245ZM15.4707 5.44545L13.2207 3.19545L5.55606 10.8612C5.49414 10.9231 5.44753 10.9986 5.41993 11.0817L4.51431 13.7975C4.49788 13.847 4.49555 13.9001 4.50757 13.9508C4.51959 14.0016 4.54549 14.048 4.58238 14.0849C4.61926 14.1218 4.66568 14.1477 4.71644 14.1597C4.76719 14.1717 4.8203 14.1694 4.86981 14.153L7.58556 13.2473C7.66854 13.2201 7.74403 13.1738 7.80606 13.1123L15.4707 5.44658V5.44545Z" fill="#0A58CA"/>
<path fill-rule="evenodd" clip-rule="evenodd" d="M1.125 15.6875C1.125 16.1351 1.30279 16.5643 1.61926 16.8807C1.93572 17.1972 2.36495 17.375 2.8125 17.375H15.1875C15.6351 17.375 16.0643 17.1972 16.3807 16.8807C16.6972 16.5643 16.875 16.1351 16.875 15.6875V8.9375C16.875 8.78832 16.8157 8.64524 16.7102 8.53975C16.6048 8.43426 16.4617 8.375 16.3125 8.375C16.1633 8.375 16.0202 8.43426 15.9148 8.53975C15.8093 8.64524 15.75 8.78832 15.75 8.9375V15.6875C15.75 15.8367 15.6907 15.9798 15.5852 16.0852C15.4798 16.1907 15.3367 16.25 15.1875 16.25H2.8125C2.66332 16.25 2.52024 16.1907 2.41475 16.0852C2.30926 15.9798 2.25 15.8367 2.25 15.6875V3.3125C2.25 3.16332 2.30926 3.02024 2.41475 2.91475C2.52024 2.80926 2.66332 2.75 2.8125 2.75H10.125C10.2742 2.75 10.4173 2.69074 10.5227 2.58525C10.6282 2.47976 10.6875 2.33668 10.6875 2.1875C10.6875 2.03832 10.6282 1.89524 10.5227 1.78975C10.4173 1.68426 10.2742 1.625 10.125 1.625H2.8125C2.36495 1.625 1.93572 1.80279 1.61926 2.11926C1.30279 2.43572 1.125 2.86495 1.125 3.3125V15.6875Z" fill="#0A58CA"/>
</svg>
