<svg width="18" height="19" viewBox="0 0 18 19" fill="none" xmlns="http://www.w3.org/2000/svg">
<g clip-path="url(#clip0_5_2119)">
<path d="M6.1875 6.6875C6.33668 6.6875 6.47976 6.74676 6.58525 6.85225C6.69074 6.95774 6.75 7.10082 6.75 7.25V14C6.75 14.1492 6.69074 14.2923 6.58525 14.3977C6.47976 14.5032 6.33668 14.5625 6.1875 14.5625C6.03832 14.5625 5.89524 14.5032 5.78975 14.3977C5.68426 14.2923 5.625 14.1492 5.625 14V7.25C5.625 7.10082 5.68426 6.95774 5.78975 6.85225C5.89524 6.74676 6.03832 6.6875 6.1875 6.6875ZM9 6.6875C9.14918 6.6875 9.29226 6.74676 9.39775 6.85225C9.50324 6.95774 9.5625 7.10082 9.5625 7.25V14C9.5625 14.1492 9.50324 14.2923 9.39775 14.3977C9.29226 14.5032 9.14918 14.5625 9 14.5625C8.85082 14.5625 8.70774 14.5032 8.60225 14.3977C8.49676 14.2923 8.4375 14.1492 8.4375 14V7.25C8.4375 7.10082 8.49676 6.95774 8.60225 6.85225C8.70774 6.74676 8.85082 6.6875 9 6.6875ZM12.375 7.25C12.375 7.10082 12.3157 6.95774 12.2102 6.85225C12.1048 6.74676 11.9617 6.6875 11.8125 6.6875C11.6633 6.6875 11.5202 6.74676 11.4148 6.85225C11.3093 6.95774 11.25 7.10082 11.25 7.25V14C11.25 14.1492 11.3093 14.2923 11.4148 14.3977C11.5202 14.5032 11.6633 14.5625 11.8125 14.5625C11.9617 14.5625 12.1048 14.5032 12.2102 14.3977C12.3157 14.2923 12.375 14.1492 12.375 14V7.25Z" fill="#DC3545"/>
<path fill-rule="evenodd" clip-rule="evenodd" d="M16.3125 3.875C16.3125 4.17337 16.194 4.45952 15.983 4.6705C15.772 4.88147 15.4859 5 15.1875 5H14.625V15.125C14.625 15.7217 14.3879 16.294 13.966 16.716C13.544 17.1379 12.9717 17.375 12.375 17.375H5.625C5.02826 17.375 4.45597 17.1379 4.03401 16.716C3.61205 16.294 3.375 15.7217 3.375 15.125V5H2.8125C2.51413 5 2.22798 4.88147 2.017 4.6705C1.80603 4.45952 1.6875 4.17337 1.6875 3.875V2.75C1.6875 2.45163 1.80603 2.16548 2.017 1.9545C2.22798 1.74353 2.51413 1.625 2.8125 1.625H6.75C6.75 1.32663 6.86853 1.04048 7.0795 0.829505C7.29048 0.618526 7.57663 0.5 7.875 0.5L10.125 0.5C10.4234 0.5 10.7095 0.618526 10.9205 0.829505C11.1315 1.04048 11.25 1.32663 11.25 1.625H15.1875C15.4859 1.625 15.772 1.74353 15.983 1.9545C16.194 2.16548 16.3125 2.45163 16.3125 2.75V3.875ZM4.63275 5L4.5 5.06637V15.125C4.5 15.4234 4.61853 15.7095 4.8295 15.9205C5.04048 16.1315 5.32663 16.25 5.625 16.25H12.375C12.6734 16.25 12.9595 16.1315 13.1705 15.9205C13.3815 15.7095 13.5 15.4234 13.5 15.125V5.06637L13.3673 5H4.63275ZM2.8125 3.875V2.75H15.1875V3.875H2.8125Z" fill="#DC3545"/>
</g>
<defs>
<clipPath id="clip0_5_2119">
<rect width="18" height="18" fill="white" transform="translate(0 0.5)"/>
</clipPath>
</defs>
</svg>
