<svg width="33" height="32" viewBox="0 0 33 32" fill="none" xmlns="http://www.w3.org/2000/svg">
<g clip-path="url(#clip0_5_2694)">
<path fill-rule="evenodd" clip-rule="evenodd" d="M28.5 2H4.5C3.96957 2 3.46086 2.21071 3.08579 2.58579C2.71071 2.96086 2.5 3.46957 2.5 4V28C2.5 28.5304 2.71071 29.0391 3.08579 29.4142C3.46086 29.7893 3.96957 30 4.5 30H28.5C29.0304 30 29.5391 29.7893 29.9142 29.4142C30.2893 29.0391 30.5 28.5304 30.5 28V4C30.5 3.46957 30.2893 2.96086 29.9142 2.58579C29.5391 2.21071 29.0304 2 28.5 2ZM4.5 0C3.43913 0 2.42172 0.421427 1.67157 1.17157C0.921427 1.92172 0.5 2.93913 0.5 4L0.5 28C0.5 29.0609 0.921427 30.0783 1.67157 30.8284C2.42172 31.5786 3.43913 32 4.5 32H28.5C29.5609 32 30.5783 31.5786 31.3284 30.8284C32.0786 30.0783 32.5 29.0609 32.5 28V4C32.5 2.93913 32.0786 1.92172 31.3284 1.17157C30.5783 0.421427 29.5609 0 28.5 0L4.5 0Z" fill="#212529"/>
<path fill-rule="evenodd" clip-rule="evenodd" d="M9.79379 9.29183C9.88668 9.19871 9.99703 9.12482 10.1185 9.07441C10.24 9.024 10.3703 8.99805 10.5018 8.99805C10.6333 8.99805 10.7636 9.024 10.8851 9.07441C11.0065 9.12482 11.1169 9.19871 11.2098 9.29183L16.5018 14.5858L21.7938 9.29183C21.8868 9.19886 21.9971 9.12511 22.1186 9.07479C22.2401 9.02447 22.3703 8.99857 22.5018 8.99857C22.6333 8.99857 22.7635 9.02447 22.885 9.07479C23.0064 9.12511 23.1168 9.19886 23.2098 9.29183C23.3028 9.38481 23.3765 9.49519 23.4268 9.61667C23.4772 9.73815 23.503 9.86835 23.503 9.99983C23.503 10.1313 23.4772 10.2615 23.4268 10.383C23.3765 10.5045 23.3028 10.6149 23.2098 10.7078L17.9158 15.9998L23.2098 21.2918C23.3028 21.3848 23.3765 21.4952 23.4268 21.6167C23.4772 21.7381 23.503 21.8683 23.503 21.9998C23.503 22.1313 23.4772 22.2615 23.4268 22.383C23.3765 22.5045 23.3028 22.6149 23.2098 22.7078C23.1168 22.8008 23.0064 22.8746 22.885 22.9249C22.7635 22.9752 22.6333 23.0011 22.5018 23.0011C22.3703 23.0011 22.2401 22.9752 22.1186 22.9249C21.9971 22.8746 21.8868 22.8008 21.7938 22.7078L16.5018 17.4138L11.2098 22.7078C11.1168 22.8008 11.0064 22.8746 10.885 22.9249C10.7635 22.9752 10.6333 23.0011 10.5018 23.0011C10.3703 23.0011 10.2401 22.9752 10.1186 22.9249C9.99714 22.8746 9.88676 22.8008 9.79379 22.7078C9.70081 22.6149 9.62706 22.5045 9.57674 22.383C9.52642 22.2615 9.50052 22.1313 9.50052 21.9998C9.50052 21.8683 9.52642 21.7381 9.57674 21.6167C9.62706 21.4952 9.70081 21.3848 9.79379 21.2918L15.0878 15.9998L9.79379 10.7078C9.70066 10.6149 9.62677 10.5046 9.57636 10.3831C9.52595 10.2616 9.5 10.1314 9.5 9.99983C9.5 9.8683 9.52595 9.73806 9.57636 9.61657C9.62677 9.49508 9.70066 9.38473 9.79379 9.29183Z" fill="#212529"/>
</g>
<defs>
<clipPath id="clip0_5_2694">
<rect width="32" height="32" fill="white" transform="translate(0.5)"/>
</clipPath>
</defs>
</svg>
